# xmcd
#
# Track frame offsets:
#	150
#	20385
#	37035
#	45508
#	60610
#	73238
#	90104
#	100793
#	116060
#	133894
#	151608
#	166695
#
# Disc length: 2431 seconds
#
# Revision: 1
# Processed by: cddbd v1.5.2PL0 Copyright (c) Steve Scherf et al.
# Submitted via: audiograbber 1.83.01
#
DISCID=90097d0c
DTITLE=Domenico Modugno - I Grandi Successi CD2
DYEAR=1900
DGENRE=
TTITLE0=Vecchio Frack
TTITLE1=Resta Cu` Mme
TTITLE2=FarFalle
TTITLE3=10 Mammeta E Tu
TTITLE4=Libero
TTITLE5=Strada `Nfosa
TTITLE6=Se Dio Vorra
TTITLE7=Stasera Pago Io
TTITLE8=Giovane Amore
TTITLE9=`O Sole Mio
TTITLE10=Tre Briganti E Tre Somari
TTITLE11=Tu Si` `Na Cosa Grande
EXTD=
EXTT0=
EXTT1=
EXTT2=
EXTT3=
EXTT4=
EXTT5=
EXTT6=
EXTT7=
EXTT8=
EXTT9=
EXTT10=
EXTT11=
PLAYORDER=
